<svg xmlns="http://www.w3.org/2000/svg" width="96" height="96" viewBox="0 0 512 512"><title>Systolics directory icon</title><rect width="512" height="512" fill="#95BF99"/><path fill="#FFFFFF" transform="translate(256 256) scale(.313) translate(-11360 -3292.6)" d="M11522 3834 c120 -29 205 -88 254 -176 26 -48 29 -62 29 -143 0 -80 -3 -95 -27 -137 -52 -88 -120 -123 -370 -189 -207 -54 -228 -67 -228 -144 0 -75 74 -115 210 -115 85 0 152 16 236 54 66 31 60 36 105 -78 l32 -79 -24 -18 c-13 -10 -60 -30 -104 -45 -66 -22 -103 -28 -215 -32 -203 -7 -326 31 -414 129 -55 61 -76 121 -76 213 1 91 21 137 89 198 57 51 115 74 324 128 65 16 131 37 147 45 100 52 92 150 -15 191 -36 13 -66 16 -152 12 -120 -6 -205 -29 -286 -78 l-48 -30 -35 77 c-56 123 -57 116 28 157 160 78 370 102 540 60z"/></svg>
